<svg xmlns="http://www.w3.org/2000/svg" width="512" height="512" fill="none" viewBox="0 0 512 512"><g clip-path="url(#clip0_1156_1098)"><path fill="#54B8C9" d="M134.097 111H172.926V143.508H138.16V178.143H105.652V139.444C105.652 123.735 118.387 111 134.097 111Z"/><path fill="#54B8C9" d="M211.755 143.508V111H289.412V143.508H211.755Z"/><path fill="#54B8C9" d="M328.241 143.508V111H405.899V143.508H328.241Z"/><path fill="#54B8C9" d="M444.728 143.508V111H483.557C499.267 111 512.002 123.735 512.002 139.444V178.143H479.494V143.508H444.728Z"/><path fill="#54B8C9" d="M479.494 216.746H512.002V255.444C512.002 271.154 499.267 283.889 483.557 283.889H444.728V251.381H479.494V216.746Z"/><path fill="#54B8C9" d="M0 244.537C0 229.329 12.735 217 28.4444 217H377.905C393.614 217 406.349 229.329 406.349 244.537V374.352C406.349 389.56 393.614 401.889 377.905 401.889H28.4444C12.735 401.889 0 389.56 0 374.352V244.537Z"/></g><defs><clipPath id="clip0_1156_1098"><rect width="512" height="512" fill="#fff"/></clipPath></defs></svg>